<svg xmlns="http://www.w3.org/2000/svg" viewBox="0 0 1100 280" width="1100" height="280">
  <defs>
    <linearGradient id="sky" x1="0" y1="0" x2="1" y2="1">
      <stop offset="0%" stop-color="#030712"/>
      <stop offset="45%" stop-color="#1e1b4b"/>
      <stop offset="100%" stop-color="#0c4a6e"/>
    </linearGradient>
    <linearGradient id="fire" x1="0" y1="0" x2="1" y2="0">
      <stop offset="0%" stop-color="#06b6d4"/>
      <stop offset="40%" stop-color="#8b5cf6"/>
      <stop offset="75%" stop-color="#ec4899"/>
      <stop offset="100%" stop-color="#f59e0b"/>
    </linearGradient>
    <filter id="blur"><feGaussianBlur stdDeviation="3"/></filter>
  </defs>
  <rect width="1100" height="280" fill="url(#sky)" rx="14"/>
  <g opacity="0.25" stroke="#38bdf8" stroke-width="0.4">
    <path d="M0 70h1100M0 140h1100M0 210h1100M110 0v280M220 0v280M330 0v280M440 0v280M550 0v280M660 0v280M770 0v280M880 0v280M990 0v280"/>
  </g>
  <text x="80" y="60" font-family="monospace" font-size="11" fill="#475569">vault://alfred/boot</text>
  <text x="80" y="130" font-family="system-ui,sans-serif" font-size="64" font-weight="900" fill="url(#fire)" filter="url(#blur)">ALFRED</text>
  <text x="80" y="128" font-family="system-ui,sans-serif" font-size="64" font-weight="900" fill="url(#fire)">ALFRED</text>
  <text x="82" y="168" font-family="monospace" font-size="16" fill="#94a3b8" letter-spacing="6">GIBEAU.AHOUSSINOU</text>
  <rect x="80" y="188" width="320" height="3" fill="url(#fire)" opacity="0.9"/>
  <text x="80" y="220" font-family="monospace" font-size="13" fill="#22d3ee">fullstack engineer in progress</text>
  <text x="80" y="245" font-family="monospace" font-size="12" fill="#a78bfa">holberton paris  |  build  |  ship</text>
  <g transform="translate(820,90)">
    <circle r="70" fill="none" stroke="url(#fire)" stroke-width="2" opacity="0.5" stroke-dasharray="10 8">
      <animateTransform attributeName="transform" type="rotate" from="0" to="360" dur="16s" repeatCount="indefinite"/>
    </circle>
    <circle r="48" fill="#0f172a" stroke="#22d3ee" stroke-width="1.5"/>
    <text text-anchor="middle" y="-6" font-family="monospace" font-size="22" fill="#22d3ee">AG</text>
    <text text-anchor="middle" y="18" font-family="monospace" font-size="9" fill="#64748b">DEV.VAULT</text>
  </g>
  <text x="1020" y="260" text-anchor="end" font-family="monospace" font-size="10" fill="#334155">v2026.1</text>
</svg>
